<?xml version="1.0" encoding="UTF-8" standalone="no"?>
<!DOCTYPE svg PUBLIC "-//W3C//DTD SVG 1.1//EN" "http://www.w3.org/Graphics/SVG/1.1/DTD/svg11.dtd">
<svg version="1.1" xmlns="http://www.w3.org/2000/svg" xmlns:xlink="http://www.w3.org/1999/xlink" preserveAspectRatio="xMidYMid meet" viewBox="0 0 640 640" width="640" height="640"><defs><path d="M335.84 164.56L357.05 185.78L273.98 268.85L252.77 247.63L335.84 164.56Z" id="b40TnxXb6"></path><path d="M388.5 184.79C389.85 186.15 389.85 188.34 388.5 189.69C385.9 192.29 380.56 197.63 377.96 200.22C376.61 201.58 374.42 201.58 373.06 200.22C362.24 189.4 332.22 159.38 321.39 148.55C320.04 147.2 320.04 145.01 321.39 143.65C323.99 141.06 329.33 135.72 331.93 133.12C333.28 131.77 335.47 131.77 336.83 133.12C347.65 143.95 377.67 173.97 388.5 184.79Z" id="bdQMMdR1q"></path><path d="M398.69 159.38C400.03 160.72 400.03 162.88 398.69 164.21C396.14 166.77 390.87 172.03 388.32 174.59C386.98 175.92 384.82 175.92 383.49 174.59C375.49 166.58 353.89 144.99 345.89 136.99C344.56 135.65 344.56 133.49 345.89 132.16C348.45 129.6 353.71 124.34 356.27 121.78C357.6 120.45 359.76 120.45 361.09 121.78C369.1 129.79 390.69 151.38 398.69 159.38Z" id="aawhl7C2rb"></path><path d="M220.59 249.98C219.16 248.55 219.16 246.24 220.59 244.82C223.32 242.08 228.95 236.45 231.69 233.72C233.11 232.29 235.42 232.29 236.85 233.72C247.65 244.51 277.46 274.32 288.26 285.12C289.68 286.55 289.68 288.86 288.26 290.28C285.52 293.02 279.89 298.65 277.16 301.38C275.73 302.81 273.42 302.81 271.99 301.38C261.2 290.59 231.38 260.78 220.59 249.98Z" id="c15edlHEFp"></path><path d="M210.36 272.76C209.06 271.46 209.06 269.34 210.36 268.04C212.86 265.54 218 260.4 220.51 257.9C221.81 256.6 223.92 256.6 225.22 257.9C233.24 265.91 254.92 287.59 262.93 295.61C264.23 296.91 264.23 299.02 262.93 300.33C260.43 302.83 255.29 307.97 252.79 310.47C251.49 311.77 249.37 311.77 248.07 310.47C240.06 302.45 218.38 280.77 210.36 272.76Z" id="b5ht3qvyl"></path><path d="M356.4 246.63L335.18 267.85L252.12 184.78L273.33 163.56L356.4 246.63Z" id="a2k6P3hTt9"></path><path d="M336.17 299.29C334.82 300.64 332.62 300.64 331.27 299.29C328.67 296.69 323.33 291.35 320.74 288.75C319.39 287.4 319.39 285.21 320.74 283.86C331.56 273.03 361.58 243.01 372.41 232.19C373.76 230.83 375.95 230.83 377.31 232.19C379.9 234.78 385.24 240.12 387.84 242.72C389.19 244.07 389.19 246.26 387.84 247.62C377.01 258.44 346.99 288.46 336.17 299.29Z" id="c4H0v5PlE"></path><path d="M361.58 309.48C360.24 310.82 358.08 310.82 356.75 309.48C354.19 306.93 348.93 301.67 346.37 299.11C345.04 297.78 345.04 295.61 346.37 294.28C354.38 286.28 375.97 264.68 383.97 256.68C385.31 255.35 387.47 255.35 388.8 256.68C391.36 259.24 396.62 264.5 399.18 267.06C400.51 268.39 400.51 270.55 399.18 271.88C391.17 279.89 369.58 301.48 361.58 309.48Z" id="a2us9BLYBq"></path><path d="M270.98 131.38C272.41 129.95 274.72 129.95 276.15 131.38C278.88 134.12 284.51 139.74 287.25 142.48C288.67 143.9 288.67 146.22 287.25 147.64C276.45 158.44 246.64 188.25 235.84 199.05C234.41 200.47 232.1 200.47 230.68 199.05C227.94 196.31 222.31 190.68 219.58 187.95C218.15 186.52 218.15 184.21 219.58 182.78C230.37 171.99 260.19 142.18 270.98 131.38Z" id="bXppv0SMo"></path><path d="M248.2 121.15C249.5 119.85 251.62 119.85 252.92 121.15C255.42 123.65 260.56 128.8 263.06 131.3C264.36 132.6 264.36 134.71 263.06 136.01C255.05 144.03 233.37 165.71 225.35 173.72C224.05 175.03 221.94 175.03 220.64 173.72C218.14 171.22 212.99 166.08 210.49 163.58C209.19 162.28 209.19 160.17 210.49 158.86C218.51 150.85 240.19 129.17 248.2 121.15Z" id="b3caOJnicl"></path></defs><g><g><g><g><use xlink:href="#b40TnxXb6" opacity="1" fill="#737dac" fill-opacity="1"></use></g><g><use xlink:href="#bdQMMdR1q" opacity="1" fill="#92c667" fill-opacity="1"></use></g><g><use xlink:href="#aawhl7C2rb" opacity="1" fill="#92c667" fill-opacity="1"></use></g><g><use xlink:href="#c15edlHEFp" opacity="1" fill="#92c667" fill-opacity="1"></use></g><g><use xlink:href="#b5ht3qvyl" opacity="1" fill="#92c667" fill-opacity="1"></use></g></g><g><g><use xlink:href="#a2k6P3hTt9" opacity="1" fill="#737dac" fill-opacity="1"></use></g><g><use xlink:href="#c4H0v5PlE" opacity="1" fill="#92c667" fill-opacity="1"></use></g><g><use xlink:href="#a2us9BLYBq" opacity="1" fill="#92c667" fill-opacity="1"></use></g><g><use xlink:href="#bXppv0SMo" opacity="1" fill="#92c667" fill-opacity="1"></use></g><g><use xlink:href="#b3caOJnicl" opacity="1" fill="#92c667" fill-opacity="1"></use></g></g></g></g></svg>